<svg xmlns="http://www.w3.org/2000/svg" xmlns:xlink="http://www.w3.org/1999/xlink" viewBox="0,0,256,256" width="100px" height="100px" fill-rule="nonzero"><defs><clipPath id="clip-1"><path d="M0,256v-256h256v256zM116.71875,35.86839c0.54803,-0.58192 1.15075,-1.13381 1.79102,-1.6398c2.91067,-2.29893 6.67523,-3.61721 10.32805,-3.61721c0.63554,0 1.2713,0.04054 1.88882,0.1199c3.01084,0.39059 5.83442,1.7331 7.95061,3.78044c0.22608,0.21878 0.5373,0.32753 0.85004,0.29664c0.31316,-0.03067 0.59693,-0.19733 0.77646,-0.45558l2.96,-4.26176c0.31037,-0.447 0.2368,-1.05552 -0.17074,-1.41565c-3.16162,-2.7927 -7.21983,-4.6309 -11.42754,-5.17636l0.00021,0.00021c-6.09674,-0.79277 -12.70398,1.0804 -17.67679,5.00712c-0.61152,0.48239 -1.21103,1.00855 -1.78201,1.56365c-0.37622,0.36571 -0.43263,0.94977 -0.1332,1.3809l2.9836,4.29415c0.18446,0.26533 0.47896,0.4337 0.80135,0.45751c0.0266,0.00193 0.05298,0.003 0.07936,0.003c0.29428,0 0.5772,-0.12119 0.78075,-0.33718zM109.75353,25.96976c0.43349,-0.39939 0.89229,-0.7962 1.36375,-1.17971c5.33487,-4.34155 12.23467,-6.83138 18.92985,-6.83138c1.18271,0 2.35342,0.07679 3.48058,0.22865c4.67981,0.62568 9.10501,2.52265 12.7975,5.48523c0.23187,0.18618 0.5313,0.26812 0.82473,0.225c0.29428,-0.04268 0.55768,-0.20527 0.72735,-0.44958l2.93641,-4.22765c0.32431,-0.46674 0.22822,-1.10528 -0.21921,-1.45598c-4.68281,-3.67019 -10.2504,-6.0236 -16.10005,-6.80586c-0.00021,0 -0.00021,0 -0.00021,0c-9.64617,-1.28932 -20.10699,1.76635 -27.98059,8.17411c-0.38544,0.31423 -0.77496,0.64477 -1.15697,0.98259c-0.40754,0.36035 -0.48068,0.96865 -0.17052,1.41544l2.96,4.26197c0.17696,0.25439 0.45515,0.42019 0.76338,0.45408c0.03947,0.00429 0.0785,0.00643 0.11754,0.00643c0.26769,0 0.52765,-0.10017 0.72649,-0.28335zM126.96379,50.75956c2.47139,-0.13427 4.74308,-1.34358 6.07744,-3.23477c1.36889,-1.9403 1.62178,-4.52644 0.64434,-6.58836c-0.04848,-0.10253 -0.09995,-0.20377 -0.15379,-0.30179c-0.96801,-1.76957 -2.87034,-3.04022 -4.96465,-3.31627c-1.98964,-0.26211 -4.05885,0.33375 -5.67999,1.63529c-1.77943,1.42852 -2.95013,3.73775 -2.98252,5.88268c-0.02595,1.72538 0.6394,3.21718 1.92422,4.31431c1.21939,1.04136 2.90809,1.62114 4.68881,1.62114c0.148,0 0.29707,-0.00408 0.44615,-0.01223z" id="overlayBgMask" fill="none" opacity="0.5"></path></clipPath></defs><g fill="#339af0" fill-rule="nonzero" stroke="none" stroke-width="1" stroke-linecap="butt" stroke-linejoin="miter" stroke-miterlimit="10" stroke-dasharray="" stroke-dashoffset="0" font-family="none" font-weight="none" font-size="none" text-anchor="none" style="mix-blend-mode: normal"><path d="M64,256c-35.34622,0 -64,-28.65378 -64,-64v-128c0,-35.34622 28.65378,-64 64,-64h128c35.34622,0 64,28.65378 64,64v128c0,35.34622 -28.65378,64 -64,64z" id="shape"></path></g><g fill="#ffd82e" fill-rule="nonzero" stroke="#ffd82e" stroke-width="33.28" stroke-linecap="butt" stroke-linejoin="round" stroke-miterlimit="10" stroke-dasharray="" stroke-dashoffset="0" font-family="none" font-weight="none" font-size="none" text-anchor="none" style="mix-blend-mode: normal"><path d="M232.96,166.4c0,1.83836 -0.17617,3.63559 -0.51255,5.37572c0.31115,0.23357 0.51255,0.60555 0.51255,1.02428c0,0.62961 -0.45534,1.15352 -1.05446,1.26017c-0.24767,0.8781 -0.53687,1.7388 -0.86533,2.57983h13.43979c0.70656,0 1.28,0.57344 1.28,1.28c0,0.70656 -0.57088,1.28 -1.28,1.28l-14.59065,0c-4.66113,9.11779 -14.14645,15.36 -25.08935,15.36c-2.97728,0 -5.84192,-0.46848 -8.53504,-1.32608c-5.09952,9.90208 -15.40096,16.68608 -27.30496,16.68608c-8.6016,0 -16.35328,-3.55584 -21.92896,-9.25184c-9.62304,11.88352 -24.31232,19.49184 -40.79104,19.49184c-20.20775,0 -37.74757,-11.42083 -46.51697,-28.16h-3.40303c-5.64736,0 -10.24,-4.59264 -10.24,-10.24c0,-4.82096 3.34687,-8.8733 7.83964,-9.95605c-0.10577,-1.36075 -0.15964,-2.73606 -0.15964,-4.12395c0,-0.45056 0.05632,-0.88832 0.06656,-1.33632c-0.44544,0.0256 -0.89344,0.05632 -1.34656,0.05632c-16.25856,0 -29.44,-13.18144 -29.44,-29.44c0,-0.42888 0.00917,-0.85561 0.02734,-1.28h-3.86734c-0.70656,0 -1.28,-0.57344 -1.28,-1.28c0,-0.70656 0.57344,-1.28 1.28,-1.28l4.08827,0c0.11283,-0.86574 0.26328,-1.71964 0.44968,-2.56h-9.65795c-0.70656,0 -1.28,-0.57344 -1.28,-1.28c0,-0.70656 0.57344,-1.28 1.28,-1.28l10.34905,0c3.18592,-9.97652 11.55016,-17.6383 21.93255,-19.83488c2.21952,-19.09504 18.42688,-33.92512 38.1184,-33.92512c4.19328,0 8.22016,0.69632 11.99872,1.93792c5.96992,-23.18336 26.95424,-40.33792 52.00128,-40.33792c23.54608,0 43.55655,15.1374 50.83073,36.21149c1.83601,2.37834 2.92927,5.35801 2.92927,8.58851c0,0.04096 0,0.07936 0,0.12032c1.54112,-0.9088 3.3024,-1.40032 5.12,-1.40032c4.68736,0 8.73216,3.22816 9.87648,7.6928c0.12032,-0.00768 0.24064,-0.0128 0.36352,-0.0128c7.05792,0 12.8,5.74208 12.8,12.8c0,4.54321 -2.37926,8.5412 -5.9572,10.81339c2.18348,4.90846 3.3972,10.34381 3.3972,16.06661c0,6.6688 -1.664,12.9408 -4.5696,18.4576c5.9264,5.16352 9.6896,12.74624 9.6896,21.2224z" id="strokeMainSVG"></path></g><g clip-path="url(#clip-1)" fill="none" fill-rule="nonzero" stroke="none" stroke-width="1" stroke-linecap="butt" stroke-linejoin="miter" stroke-miterlimit="10" stroke-dasharray="" stroke-dashoffset="0" font-family="none" font-weight="none" font-size="none" text-anchor="none" style="mix-blend-mode: normal"><g transform="scale(2.56,2.56)"><path d="M87.215,56.71c1.135,-2.155 1.785,-4.605 1.785,-7.21c0,-6.621 -4.159,-12.257 -10.001,-14.478c0,-0.007 0.001,-0.014 0.001,-0.022c0,-11.598 -9.402,-21 -21,-21c-9.784,0 -17.981,6.701 -20.313,15.757c-1.476,-0.485 -3.049,-0.757 -4.687,-0.757c-7.692,0 -14.023,5.793 -14.89,13.252c-5.204,1.101 -9.11,5.717 -9.11,11.248c0,6.351 5.149,11.5 11.5,11.5c0.177,0 0.352,-0.012 0.526,-0.022c-0.004,0.175 -0.026,0.346 -0.026,0.522c0,11.322 9.178,20.5 20.5,20.5c6.437,0 12.175,-2.972 15.934,-7.614c2.178,2.225 5.206,3.614 8.566,3.614c4.65,0 8.674,-2.65 10.666,-6.518c1.052,0.335 2.171,0.518 3.334,0.518c6.075,0 11,-4.925 11,-11c0,-3.311 -1.47,-6.273 -3.785,-8.29z" fill="#c7ede6"></path><path d="M69.5,43.5v0.5h-3v-0.5c0,0 -4.242,0 -5.5,0c-2.485,0 -4.5,-2.015 -4.5,-4.5c0,-2.333 1.782,-4.229 4.055,-4.455c-0.022,-0.181 -0.055,-0.358 -0.055,-0.545c0,-2.485 2.015,-4.5 4.5,-4.5c1.438,0 2.703,0.686 3.527,1.736c0.14,-2.636 2.302,-4.736 4.973,-4.736c2.761,0 5,2.239 5,5c0,0.446 -0.077,0.87 -0.187,1.282c0.642,-0.777 1.6,-1.282 2.687,-1.282c1.781,0 3.234,1.335 3.455,3.055c0.181,-0.022 0.358,-0.055 0.545,-0.055c2.485,0 4.5,2.015 4.5,4.5c0,2.485 -2.015,4.5 -4.5,4.5c-2.485,0 -9.5,0 -9.5,0z" fill="#fdfcef"></path><path d="M73.5,26c3.033,0 5.5,2.467 5.5,5.5c0,0.016 0,0.031 0,0.047c0.602,-0.355 1.29,-0.547 2,-0.547c1.831,0 3.411,1.261 3.858,3.005c0.047,-0.003 0.094,-0.005 0.142,-0.005c2.757,0 5,2.243 5,5c0,2.757 -2.243,5 -5,5h-15.5c-0.276,0 -0.5,-0.224 -0.5,-0.5c0,-0.276 0.224,-0.5 0.5,-0.5h15.5c2.206,0 4,-1.794 4,-4c0,-2.206 -1.794,-4 -4,-4c-0.117,0 -0.23,0.017 -0.343,0.032l-0.141,0.019c-0.021,0.003 -0.041,0.004 -0.062,0.004c-0.246,0 -0.462,-0.185 -0.495,-0.437c-0.191,-1.493 -1.463,-2.618 -2.959,-2.618c-0.885,0 -1.723,0.401 -2.301,1.1c-0.098,0.118 -0.241,0.182 -0.386,0.182c-0.078,0 -0.156,-0.018 -0.228,-0.056c-0.209,-0.107 -0.314,-0.346 -0.254,-0.573c0.115,-0.435 0.169,-0.801 0.169,-1.153c0,-2.481 -2.019,-4.5 -4.5,-4.5c-2.381,0 -4.347,1.872 -4.474,4.263c-0.011,0.208 -0.15,0.387 -0.349,0.45c-0.05,0.016 -0.101,0.024 -0.152,0.024c-0.15,0 -0.296,-0.069 -0.392,-0.192c-0.771,-0.982 -1.912,-1.545 -3.133,-1.545c-2.206,0 -4,1.794 -4,4c0,0.117 0.017,0.23 0.032,0.343l0.019,0.141c0.016,0.134 -0.022,0.268 -0.106,0.373c-0.084,0.105 -0.207,0.172 -0.34,0.185c-2.056,0.205 -3.605,1.907 -3.605,3.958c0,2.206 1.794,4 4,4h5.5c0.276,0 0.5,0.224 0.5,0.5c0,0.276 -0.224,0.5 -0.5,0.5h-5.5c-2.757,0 -5,-2.243 -5,-5c0,-2.397 1.689,-4.413 4.003,-4.877c-0.002,-0.041 -0.003,-0.082 -0.003,-0.123c0,-2.757 2.243,-5 5,-5c1.176,0 2.293,0.416 3.183,1.164c0.598,-2.404 2.762,-4.164 5.317,-4.164z" fill="#472b29"></path><path d="M75,33c1.403,0 2.609,0.999 2.913,2.341c0.367,-0.222 0.786,-0.341 1.212,-0.341c1.202,0 2.198,0.897 2.353,2.068c0.203,-0.046 0.396,-0.068 0.585,-0.068c1.529,0 2.811,1.2 2.918,2.732c0.009,0.138 -0.095,0.258 -0.232,0.268c-0.006,0 -0.012,0 -0.018,0c-0.13,0 -0.24,-0.101 -0.249,-0.232c-0.089,-1.271 -1.151,-2.268 -2.419,-2.268c-0.229,0 -0.47,0.042 -0.738,0.127c-0.022,0.007 -0.045,0.01 -0.067,0.01c-0.055,0 -0.11,-0.02 -0.156,-0.054c-0.064,-0.046 -0.102,-0.128 -0.102,-0.208c0,-1.034 -0.841,-1.875 -1.875,-1.875c-0.447,0 -0.885,0.168 -1.231,0.473c-0.047,0.041 -0.106,0.063 -0.165,0.063c-0.032,0 -0.063,-0.006 -0.093,-0.019c-0.088,-0.035 -0.148,-0.117 -0.155,-0.212c-0.104,-1.293 -1.193,-2.305 -2.481,-2.305c-0.208,0 -0.425,0.034 -0.682,0.107c-0.023,0.007 -0.047,0.01 -0.07,0.01c-0.109,0 -0.207,-0.073 -0.239,-0.182c-0.038,-0.133 0.039,-0.271 0.172,-0.309c0.302,-0.086 0.563,-0.126 0.819,-0.126zM61.117,34.5c1.326,0 2.508,0.897 2.874,2.182c0.038,0.133 -0.039,0.271 -0.172,0.309c-0.024,0.006 -0.047,0.009 -0.069,0.009c-0.109,0 -0.209,-0.072 -0.24,-0.182c-0.305,-1.07 -1.289,-1.818 -2.393,-1.818c-0.117,0 -0.23,0.014 -0.342,0.029c-0.012,0.002 -0.023,0.003 -0.035,0.003c-0.121,0 -0.229,-0.092 -0.246,-0.217c-0.019,-0.137 0.077,-0.263 0.214,-0.281c0.134,-0.018 0.27,-0.034 0.409,-0.034z" fill="#472b29"></path><path d="M15.5,51h-10c-0.276,0 -0.5,-0.224 -0.5,-0.5c0,-0.276 0.224,-0.5 0.5,-0.5h10c0.276,0 0.5,0.224 0.5,0.5c0,0.276 -0.223,0.5 -0.5,0.5zM18.5,51h-1c-0.276,0 -0.5,-0.224 -0.5,-0.5c0,-0.276 0.224,-0.5 0.5,-0.5h1c0.276,0 0.5,0.224 0.5,0.5c0,0.276 -0.223,0.5 -0.5,0.5zM23.491,53h-8.991c-0.276,0 -0.5,-0.224 -0.5,-0.5c0,-0.276 0.224,-0.5 0.5,-0.5h8.991c0.276,0 0.5,0.224 0.5,0.5c0,0.276 -0.224,0.5 -0.5,0.5zM12.5,53h-1c-0.276,0 -0.5,-0.224 -0.5,-0.5c0,-0.276 0.224,-0.5 0.5,-0.5h1c0.276,0 0.5,0.224 0.5,0.5c0,0.276 -0.223,0.5 -0.5,0.5zM9.5,53h-2c-0.276,0 -0.5,-0.224 -0.5,-0.5c0,-0.276 0.224,-0.5 0.5,-0.5h2c0.276,0 0.5,0.224 0.5,0.5c0,0.276 -0.223,0.5 -0.5,0.5zM15.5,55h-2c-0.276,0 -0.5,-0.224 -0.5,-0.5c0,-0.276 0.224,-0.5 0.5,-0.5h2c0.276,0 0.5,0.224 0.5,0.5c0,0.276 -0.224,0.5 -0.5,0.5zM18.5,46c-0.177,0 -0.823,0 -1,0c-0.276,0 -0.5,0.224 -0.5,0.5c0,0.276 0.224,0.5 0.5,0.5c0.177,0 0.823,0 1,0c0.276,0 0.5,-0.224 0.5,-0.5c0,-0.276 -0.224,-0.5 -0.5,-0.5zM18.5,48c-0.177,0 -4.823,0 -5,0c-0.276,0 -0.5,0.224 -0.5,0.5c0,0.276 0.224,0.5 0.5,0.5c0.177,0 4.823,0 5,0c0.276,0 0.5,-0.224 0.5,-0.5c0,-0.276 -0.224,-0.5 -0.5,-0.5zM23.5,50c-0.177,0 -2.823,0 -3,0c-0.276,0 -0.5,0.224 -0.5,0.5c0,0.276 0.224,0.5 0.5,0.5c0.177,0 2.823,0 3,0c0.276,0 0.5,-0.224 0.5,-0.5c0,-0.276 -0.224,-0.5 -0.5,-0.5zM86.5,68h-10c-0.276,0 -0.5,-0.224 -0.5,-0.5c0,-0.276 0.224,-0.5 0.5,-0.5h10c0.276,0 0.5,0.224 0.5,0.5c0,0.276 -0.224,0.5 -0.5,0.5zM90.5,68h-2c-0.276,0 -0.5,-0.224 -0.5,-0.5c0,-0.276 0.224,-0.5 0.5,-0.5h2c0.276,0 0.5,0.224 0.5,0.5c0,0.276 -0.224,0.5 -0.5,0.5zM95.5,70h-10c-0.276,0 -0.5,-0.224 -0.5,-0.5c0,-0.276 0.224,-0.5 0.5,-0.5h10c0.276,0 0.5,0.224 0.5,0.5c0,0.276 -0.223,0.5 -0.5,0.5zM83.5,70h-1c-0.276,0 -0.5,-0.224 -0.5,-0.5c0,-0.276 0.224,-0.5 0.5,-0.5h1c0.276,0 0.5,0.224 0.5,0.5c0,0.276 -0.224,0.5 -0.5,0.5zM80.47,70h-1.97c-0.276,0 -0.5,-0.224 -0.5,-0.5c0,-0.276 0.224,-0.5 0.5,-0.5h1.97c0.276,0 0.5,0.224 0.5,0.5c0,0.276 -0.224,0.5 -0.5,0.5zM89.5,66h-5c-0.276,0 -0.5,-0.224 -0.5,-0.5c0,-0.276 0.224,-0.5 0.5,-0.5h5c0.276,0 0.5,0.224 0.5,0.5c0,0.276 -0.223,0.5 -0.5,0.5zM86.5,72h-2c-0.276,0 -0.5,-0.224 -0.5,-0.5c0,-0.276 0.224,-0.5 0.5,-0.5h2c0.276,0 0.5,0.224 0.5,0.5c0,0.276 -0.224,0.5 -0.5,0.5z" fill="#ffffff"></path><g><path d="M28.886,70.3c-0.654,0 -1.186,-0.545 -1.186,-1.215v-34.17c0,-0.67 0.531,-1.215 1.186,-1.215h42.229c0.654,0 1.186,0.545 1.186,1.215v34.17c0,0.67 -0.532,1.215 -1.187,1.215z" fill="#fcba7f"></path><path d="M71.114,34.4c0.268,0 0.486,0.231 0.486,0.515v34.17c0,0.284 -0.218,0.515 -0.487,0.515h-42.227c-0.268,0 -0.486,-0.231 -0.486,-0.515v-34.17c0,-0.284 0.218,-0.515 0.486,-0.515h42.228M71.114,33h-42.228c-1.042,0 -1.886,0.857 -1.886,1.915v34.17c0,1.058 0.844,1.915 1.886,1.915h42.227c1.043,0 1.887,-0.857 1.887,-1.915v-34.17c0,-1.058 -0.844,-1.915 -1.886,-1.915z" fill="#472b29"></path></g><g fill="#c7dff1"><path d="M31.217,37.46h37.643v29.44h-37.643z"></path></g><g fill="#472b29"><path d="M68.132,37.96h-2.377c-0.276,0 -0.5,-0.224 -0.5,-0.5c0,-0.276 0.224,-0.5 0.5,-0.5h2.377c0.276,0 0.5,0.224 0.5,0.5c0,0.276 -0.224,0.5 -0.5,0.5z"></path></g><g fill="#472b29"><path d="M62.075,37.96h-5.463c-0.276,0 -0.5,-0.224 -0.5,-0.5c0,-0.276 0.224,-0.5 0.5,-0.5h5.463c0.276,0 0.5,0.224 0.5,0.5c0,0.276 -0.223,0.5 -0.5,0.5z"></path></g><g fill="#472b29"><path d="M69,67h-38v-30h22.5c0.276,0 0.5,0.224 0.5,0.5c0,0.276 -0.224,0.5 -0.5,0.5h-21.5v28h36v-25.5c0,-0.276 0.224,-0.5 0.5,-0.5c0.276,0 0.5,0.224 0.5,0.5z"></path></g><g><path d="M42.18,40.68c-1.77836,0 -3.22,1.44164 -3.22,3.22c0,1.77836 1.44164,3.22 3.22,3.22c1.77836,0 3.22,-1.44164 3.22,-3.22c0,-1.77836 -1.44164,-3.22 -3.22,-3.22z" fill="#f9e65c"></path><path d="M42.18,47.37c-1.913,0 -3.47,-1.557 -3.47,-3.47c0,-1.914 1.557,-3.471 3.47,-3.471c1.914,0 3.471,1.557 3.471,3.471c-0.001,1.913 -1.557,3.47 -3.471,3.47zM42.18,40.93c-1.638,0 -2.97,1.333 -2.97,2.971c0,1.638 1.332,2.97 2.97,2.97c1.638,0 2.971,-1.332 2.971,-2.97c0,-1.638 -1.334,-2.971 -2.971,-2.971z" fill="#472b29"></path></g><g><path d="M39.203,66.558l14.1,-20.876c0.283,-0.418 0.911,-0.423 1.201,-0.01l13.859,19.691v1.195z" fill="#00a7a7"></path><path d="M68.863,67.059h-30.601l14.627,-21.656c0.226,-0.333 0.604,-0.533 1.01,-0.537c0.424,0.035 0.786,0.191 1.015,0.52l13.95,19.82v1.853zM40.145,66.059h27.719v-0.537l-13.769,-19.562c-0.059,-0.085 -0.149,-0.095 -0.188,-0.095h-0.001c-0.037,0.001 -0.131,0.011 -0.189,0.098z" fill="#472b29"></path></g><g><path d="M31.712,58.173l6.319,-6.961c0.411,-0.452 1.146,-0.418 1.51,0.071l5.125,6.89l-5.464,8.385h-7.566z" fill="#00a7a7"></path><path d="M39.473,67.059h-8.342l0.084,-9.081l6.446,-7.102c0.299,-0.328 0.73,-0.513 1.171,-0.48c0.443,0.021 0.849,0.236 1.11,0.59l5.333,7.169zM32.141,66.059h6.791l5.125,-7.867l-4.917,-6.609c-0.083,-0.112 -0.214,-0.181 -0.357,-0.188c-0.162,-0.015 -0.286,0.049 -0.381,0.153l-6.19,6.82z" fill="#472b29"></path></g><g><path d="M58.56,51.144l4.756,-5.594c0.32,-0.376 0.908,-0.347 1.19,0.057l3.857,5.537l-0.039,14.069z" fill="#00a7a7"></path><path d="M68.818,66.804l-10.888,-15.691l5.005,-5.887c0.255,-0.299 0.646,-0.454 1.015,-0.439c0.391,0.02 0.743,0.214 0.967,0.535l3.946,5.666zM59.189,51.176l8.639,12.446l0.034,-12.321l-3.767,-5.406c-0.062,-0.089 -0.148,-0.106 -0.194,-0.108c-0.048,0.002 -0.135,0.007 -0.205,0.089z" fill="#472b29"></path></g><g fill="#42210b"><path d="M50,26c-1.10457,0 -2,0.89543 -2,2c0,1.10457 0.89543,2 2,2c1.10457,0 2,-0.89543 2,-2c0,-1.10457 -0.89543,-2 -2,-2z"></path></g><g fill="#472b29"><path d="M58.28,34.395c-0.104,0 -0.207,-0.031 -0.297,-0.098l-7.983,-5.876l-7.983,5.876c-0.223,0.165 -0.535,0.117 -0.699,-0.105c-0.164,-0.222 -0.116,-0.536 0.105,-0.699l8.577,-6.314l8.577,6.313c0.222,0.163 0.27,0.477 0.105,0.699c-0.097,0.133 -0.248,0.204 -0.402,0.204z"></path></g><g><path d="M36.5,74.5c0,0 1.567,0 3.5,0c1.933,0 3.5,-1.567 3.5,-3.5c0,-1.781 -1.335,-3.234 -3.055,-3.455c0.028,-0.179 0.055,-0.358 0.055,-0.545c0,-1.933 -1.567,-3.5 -3.5,-3.5c-1.032,0 -1.95,0.455 -2.59,1.165c-0.384,-1.808 -1.987,-3.165 -3.91,-3.165c-2.209,0 -4,1.791 -4,4c0,0.191 0.03,0.374 0.056,0.558c-0.428,-0.344 -0.964,-0.558 -1.556,-0.558c-1.228,0 -2.245,0.887 -2.455,2.055c-0.179,-0.028 -0.358,-0.055 -0.545,-0.055c-1.933,0 -3.5,1.567 -3.5,3.5c0,1.933 1.567,3.5 3.5,3.5c1.933,0 7.5,0 7.5,0v0.5h7z" fill="#fdfcef"></path><path d="M38.25,70c-0.138,0 -0.25,-0.112 -0.25,-0.25c0,-1.223 0.995,-2.218 2.218,-2.218c0.034,0.009 0.737,-0.001 1.244,0.136c0.133,0.036 0.212,0.173 0.176,0.306c-0.036,0.134 -0.173,0.213 -0.306,0.176c-0.444,-0.12 -1.1,-0.12 -1.113,-0.118c-0.948,0 -1.719,0.771 -1.719,1.718c0,0.138 -0.112,0.25 -0.25,0.25zM31.5,74c-0.27614,0 -0.5,0.22386 -0.5,0.5c0,0.27614 0.22386,0.5 0.5,0.5c0.27614,0 0.5,-0.22386 0.5,-0.5c0,-0.27614 -0.22386,-0.5 -0.5,-0.5z" fill="#472b29"></path><path d="M40,75h-3.5c-0.276,0 -0.5,-0.224 -0.5,-0.5c0,-0.276 0.224,-0.5 0.5,-0.5h3.5c1.654,0 3,-1.346 3,-3c0,-1.496 -1.125,-2.768 -2.618,-2.959c-0.134,-0.018 -0.255,-0.088 -0.336,-0.196c-0.081,-0.108 -0.115,-0.244 -0.094,-0.377c0.023,-0.154 0.048,-0.308 0.048,-0.468c0,-1.654 -1.346,-3 -3,-3c-0.85,0 -1.638,0.355 -2.219,1c-0.125,0.139 -0.321,0.198 -0.5,0.148c-0.182,-0.049 -0.321,-0.195 -0.36,-0.379c-0.341,-1.604 -1.78,-2.769 -3.421,-2.769c-1.93,0 -3.5,1.57 -3.5,3.5c0,0.143 0.021,0.28 0.041,0.418c0.029,0.203 -0.063,0.438 -0.242,0.54c-0.179,0.102 -0.396,0.118 -0.556,-0.01c-0.365,-0.293 -0.794,-0.448 -1.243,-0.448c-0.966,0 -1.792,0.691 -1.963,1.644c-0.048,0.267 -0.296,0.446 -0.569,0.405c-0.154,-0.024 -0.308,-0.049 -0.468,-0.049c-1.654,0 -3,1.346 -3,3c0,1.654 1.346,3 3,3h7.5c0.276,0 0.5,0.224 0.5,0.5c0,0.276 -0.224,0.5 -0.5,0.5h-7.5c-2.206,0 -4,-1.794 -4,-4c0,-2.206 1.794,-4 4,-4c0.059,0 0.116,0.002 0.174,0.006c0.414,-1.186 1.537,-2.006 2.826,-2.006c0.349,0 0.689,0.061 1.011,0.18c0.165,-2.333 2.115,-4.18 4.489,-4.18c1.831,0 3.466,1.127 4.153,2.774c0.68,-0.498 1.502,-0.774 2.347,-0.774c2.206,0 4,1.794 4,4c0,0.048 -0.001,0.095 -0.004,0.142c1.743,0.448 3.004,2.027 3.004,3.858c0,2.206 -1.794,4 -4,4z" fill="#472b29"></path><path d="M34.5,74c-0.159,0 -0.841,0 -1,0c-0.276,0 -0.5,0.224 -0.5,0.5c0,0.276 0.224,0.5 0.5,0.5c0.159,0 0.841,0 1,0c0.276,0 0.5,-0.224 0.5,-0.5c0,-0.276 -0.224,-0.5 -0.5,-0.5z" fill="#472b29"></path></g></g></g><g fill="none" fill-rule="nonzero" stroke="none" stroke-width="none" stroke-linecap="butt" stroke-linejoin="none" stroke-miterlimit="10" stroke-dasharray="" stroke-dashoffset="0" font-family="none" font-weight="none" font-size="none" text-anchor="none" style="mix-blend-mode: normal"><path d="M120.30026,34.2217c-0.01684,0 -0.03368,-0.00068 -0.05066,-0.00192c-0.20579,-0.0152 -0.39378,-0.12268 -0.51154,-0.29205l-1.90457,-2.74116c-0.19114,-0.27521 -0.15513,-0.64805 0.08503,-0.8815c0.36448,-0.35435 0.74718,-0.69022 1.13754,-0.99815c3.17437,-2.50661 7.39208,-3.70234 11.28392,-3.19628l-0.00014,-0.00014c2.68598,0.34819 5.27652,1.5216 7.29473,3.30431c0.26015,0.22989 0.30711,0.61833 0.10899,0.90368l-1.88951,2.72048c-0.1146,0.16485 -0.29575,0.27124 -0.49565,0.29082c-0.19963,0.01972 -0.3983,-0.0497 -0.54262,-0.18936c-1.35086,-1.30691 -3.15329,-2.1639 -5.07525,-2.41323c-0.3942,-0.05066 -0.80003,-0.07654 -1.20573,-0.07654c-2.33176,0 -4.73486,0.84152 -6.59288,2.30903c-0.40871,0.323 -0.79346,0.67529 -1.14329,1.04676c-0.12994,0.13788 -0.31054,0.21524 -0.49839,0.21524zM115.88867,27.86857c-0.02492,0 -0.04984,-0.00137 -0.07503,-0.00411c-0.19676,-0.02163 -0.37434,-0.12747 -0.4873,-0.28986l-1.88951,-2.72062c-0.19799,-0.28521 -0.1513,-0.67351 0.10885,-0.90354c0.24386,-0.21565 0.4925,-0.42665 0.73855,-0.62723c5.02609,-4.09037 11.70372,-6.04095 17.86133,-5.21792c0,0 0,0 0.00014,0c3.73411,0.49935 7.28816,2.00165 10.27742,4.3445c0.28562,0.22387 0.34696,0.63148 0.13993,0.92942l-1.87445,2.69871c-0.1083,0.15595 -0.27644,0.25974 -0.4643,0.28699c-0.18731,0.02752 -0.37845,-0.02478 -0.52646,-0.14363c-2.35709,-1.89115 -5.18191,-3.10208 -8.16925,-3.50148c-0.71952,-0.09694 -1.46683,-0.14596 -2.22182,-0.14596c-4.27385,0 -8.67832,1.58938 -12.08382,4.36079c-0.30095,0.24481 -0.59383,0.49812 -0.87054,0.75306c-0.12693,0.11693 -0.29287,0.18087 -0.46375,0.18087zM127.05374,43.52c-1.13672,0 -2.2147,-0.3701 -2.99309,-1.03485c-0.82016,-0.70035 -1.24488,-1.65264 -1.22832,-2.75403c0.02068,-1.36921 0.76799,-2.8433 1.90388,-3.75519c1.03485,-0.83084 2.35572,-1.2112 3.6258,-1.04388c1.3369,0.17622 2.55125,0.98734 3.16917,2.11693c0.03437,0.06257 0.06723,0.1272 0.09817,0.19265c0.62395,1.31622 0.46252,2.96708 -0.41131,4.20566c-0.85178,1.20723 -2.30191,1.97919 -3.87952,2.0649c-0.09516,0.0052 -0.19032,0.0078 -0.2848,0.0078z" id="strokeOverlay" fill="#ffd82e" stroke="#ffd82e" stroke-width="33.28" stroke-linejoin="round"></path><g transform="translate(113.38438,17.91579) scale(0.13692,0.13692)" id="overlay" stroke="none" stroke-width="1" stroke-linejoin="miter"><path d="M123.19,64.81c-27.11,-3.52 -56.52,4.82 -78.67,22.31c-2.75,2.17 -5.39,4.49 -7.92,6.95l13.91,20.02c2.76,-2.93 5.74,-5.65 8.89,-8.14c14.6,-11.53 33.2,-17.94 51.25,-17.94c3.18,0 6.34,0.2 9.45,0.6c15.26,1.98 29.46,8.89 39.9,18.99l13.8,-19.87c-13.79,-12.18 -31.63,-20.46 -50.61,-22.92z" fill="#74cccf"></path><path d="M136.36,6.34c-43.63,-5.83 -90.97,8.01 -126.63,37.03c-1.78,1.45 -3.52,2.93 -5.24,4.45l13.8,19.87c2.14,-1.97 4.34,-3.87 6.59,-5.7c26.04,-21.19 59.2,-32.97 91.41,-32.97c5.68,0 11.32,0.36 16.89,1.11c22.96,3.07 44.62,12.58 62.13,26.63l13.69,-19.71c-20.67,-16.2 -45.94,-27.14 -72.64,-30.71z" fill="#74cccf"></path><path d="M128.734,143.286c-0.184,-0.387 -0.379,-0.77 -0.585,-1.148c-3.839,-7.018 -11.373,-11.843 -19.413,-12.903c-8.04,-1.06 -16.417,1.525 -22.697,6.567c-11.664,9.364 -17.679,28.855 -4.818,39.838c5.521,4.714 13.116,6.708 20.422,6.311c9.597,-0.521 19.046,-5.212 24.52,-12.971c5.224,-7.406 6.429,-17.555 2.571,-25.694z" fill="#74cccf"></path><path d="M50.51,119.09c-0.123,0 -0.246,-0.005 -0.37,-0.014c-1.503,-0.111 -2.876,-0.896 -3.736,-2.133l-13.91,-20.02c-1.396,-2.01 -1.133,-4.733 0.621,-6.438c2.662,-2.588 5.457,-5.041 8.308,-7.29c23.184,-18.307 53.988,-27.04 82.412,-23.344l-0.001,-0.001c19.617,2.543 38.537,11.113 53.277,24.133c1.9,1.679 2.243,4.516 0.796,6.6l-13.8,19.869c-0.837,1.204 -2.16,1.981 -3.62,2.124c-1.458,0.144 -2.909,-0.363 -3.963,-1.383c-9.866,-9.545 -23.03,-15.804 -37.067,-17.625c-2.879,-0.37 -5.843,-0.559 -8.806,-0.559c-17.03,0 -34.581,6.146 -48.151,16.864c-2.985,2.359 -5.795,4.932 -8.35,7.645c-0.949,1.007 -2.268,1.572 -3.64,1.572zM43.178,94.774l8.048,11.583c1.631,-1.501 3.326,-2.948 5.074,-4.33c15.304,-12.086 35.113,-19.017 54.35,-19.017c3.388,0 6.782,0.216 10.088,0.642c14.175,1.839 27.593,7.626 38.371,16.465l7.98,-11.489c-12.708,-10.11 -28.36,-16.762 -44.542,-18.858c0,-0.001 -0.001,-0.001 -0.001,-0.001c-25.808,-3.349 -53.814,4.604 -74.929,21.276c-1.5,1.184 -2.985,2.432 -4.439,3.729z" fill="#000000"></path><path d="M18.29,72.69c-0.182,0 -0.364,-0.01 -0.548,-0.03c-1.437,-0.158 -2.734,-0.931 -3.559,-2.117l-13.8,-19.87c-1.446,-2.083 -1.105,-4.919 0.795,-6.599c1.781,-1.575 3.597,-3.116 5.394,-4.581c36.708,-29.874 85.478,-44.12 130.45,-38.109c0,0 0,0 0.001,0c27.272,3.647 53.229,14.619 75.061,31.73c2.086,1.635 2.534,4.612 1.022,6.788l-13.69,19.71c-0.791,1.139 -2.019,1.897 -3.391,2.096c-1.368,0.201 -2.764,-0.181 -3.845,-1.049c-17.215,-13.812 -37.846,-22.656 -59.664,-25.573c-5.255,-0.708 -10.713,-1.066 -16.227,-1.066c-31.214,0 -63.382,11.608 -88.254,31.849c-2.198,1.788 -4.337,3.638 -6.358,5.5c-0.927,0.854 -2.139,1.321 -3.387,1.321zM11.167,48.669l8.022,11.551c0.835,-0.71 1.682,-1.414 2.535,-2.108c26.625,-21.667 61.092,-34.092 94.566,-34.092c5.958,0 11.865,0.389 17.557,1.155c21.854,2.922 42.608,11.336 60.351,24.422l7.96,-11.461c-19.621,-14.383 -42.498,-23.636 -66.46,-26.84h0.001c-42.293,-5.655 -88.206,7.789 -122.812,35.952c-0.572,0.466 -1.146,0.94 -1.72,1.421z" fill="#000000"></path><path d="M99.834,187c-8.302,0 -16.175,-2.703 -21.86,-7.558c-5.99,-5.115 -9.092,-12.07 -8.971,-20.114c0.151,-10 5.609,-20.766 13.905,-27.426c7.558,-6.068 17.205,-8.846 26.481,-7.624c9.764,1.287 18.633,7.211 23.146,15.461c0.251,0.457 0.491,0.929 0.717,1.407c4.557,9.613 3.378,21.67 -3.004,30.716c-6.221,8.817 -16.812,14.455 -28.334,15.081c-0.695,0.038 -1.39,0.057 -2.08,0.057zM105.147,134.002c-5.62,0 -11.418,2.037 -15.979,5.699c-5.974,4.796 -10.06,12.744 -10.166,19.778c-0.076,5.038 1.763,9.196 5.466,12.357c4.226,3.608 10.381,5.471 16.904,5.122c8.365,-0.455 16.299,-4.616 20.704,-10.86c4.271,-6.055 5.131,-14.361 2.14,-20.671l-0.001,-0.002c-0.142,-0.297 -0.29,-0.591 -0.449,-0.88c-3.015,-5.512 -9.022,-9.476 -15.684,-10.354c-0.968,-0.127 -1.948,-0.189 -2.935,-0.189z" fill="#000000"></path></g></g></svg>